<?xml version="1.0" encoding="utf-8"?>
<!-- Generator: Adobe Illustrator 21.0.0, SVG Export Plug-In . SVG Version: 6.00 Build 0)  -->
<svg version="1.1" id="Layer_1" xmlns="http://www.w3.org/2000/svg" xmlns:xlink="http://www.w3.org/1999/xlink" x="0px" y="0px"
	 viewBox="0 0 113.4 80" style="enable-background:new 0 0 113.4 80;" xml:space="preserve">
<style type="text/css">
	.st0{fill:#FED049;}
</style>
<title>single_1</title>
<g id="Layer_2">
	<g id="Layer_1-2">
		<path class="st0" d="M113.4,45.8c-0.1-6-4.5-11-10.4-11.8V11.1c0-0.9-0.5-1.7-1.4-2C72.9-3,40.5-3,11.8,9c-0.8,0.3-1.4,1.1-1.4,2
			v23C4.5,34.8,0.1,39.8,0,45.8v32c-0.1,1.2,0.8,2.2,2,2.3c0.1,0,0.2,0,0.2,0h11.1c1.2,0.1,2.2-0.8,2.3-2c0-0.1,0-0.2,0-0.3v-5.7
			h82.1v5.7c-0.1,1.2,0.8,2.2,2,2.3c0.1,0,0.2,0,0.2,0h11.1c1.2,0.1,2.2-0.8,2.3-2c0-0.1,0-0.2,0-0.3L113.4,45.8z M4.5,67.8v-7
			h104.3v7H4.5z M15,12.6c26.8-10.9,56.9-10.9,83.7,0V34h-8.4c-1.2-9.9-9.5-17.4-19.5-17.5H42.9c-10,0.1-18.3,7.6-19.5,17.5H15V12.6
			z M85.5,34H27.9c1.1-7.4,7.5-12.9,15-13h27.7C78,21.1,84.4,26.6,85.5,34z M11.8,38.5h89.6c4,0,7.2,3.3,7.3,7.3V56H4.5V45.8
			C4.6,41.8,7.8,38.5,11.8,38.5z M11.1,75.7H4.5v-3.4h6.6L11.1,75.7z M108.9,75.7h-6.6v-3.4h6.6V75.7z"/>
	</g>
</g>
</svg>
